HIERARCHY
ROOT pelvis
{
	OFFSET 0.003123 -0.351407 0.012037
	CHANNELS 6 Xposition Yposition Zposition Zrotation Yrotation Xrotation 
	JOINT left_hip
	{
		OFFSET 0.058189 -0.092763 -0.026001
		CHANNELS 3 Zrotation Yrotation Xrotation
		JOINT left_knee
		{
			OFFSET 0.054695 -0.378753 -0.009396
			CHANNELS 3 Zrotation Yrotation Xrotation
			JOINT left_ankle
			{
				OFFSET -0.043453 -0.403059 -0.031876
				CHANNELS 3 Zrotation Yrotation Xrotation
				JOINT left_foot
				{
					OFFSET 0.047257 -0.057997 0.118216
					CHANNELS 3 Zrotation Yrotation Xrotation
					End Site
					{
						OFFSET 0.000000 0.000000 0.000000
					}
				}
			}
		}
	}
	JOINT right_hip
	{
		OFFSET -0.063267 -0.103908 -0.021250
		CHANNELS 3 Zrotation Yrotation Xrotation
		JOINT right_knee
		{
			OFFSET -0.044210 -0.362380 -0.016824
			CHANNELS 3 Zrotation Yrotation Xrotation
			JOINT right_ankle
			{
				OFFSET 0.015417 -0.410728 -0.020192
				CHANNELS 3 Zrotation Yrotation Xrotation
				JOINT right_foot
				{
					OFFSET -0.038812 -0.058328 0.119049
					CHANNELS 3 Zrotation Yrotation Xrotation
					End Site
					{
						OFFSET 0.000000 0.000000 0.000000
					}
				}
			}
		}
	}
	JOINT spine_1
	{
		OFFSET -0.002763 0.109891 -0.027618
		CHANNELS 3 Zrotation Yrotation Xrotation
		JOINT spine_2
		{
			OFFSET 0.009448 0.131853 -0.005940
			CHANNELS 3 Zrotation Yrotation Xrotation
			JOINT spine_3
			{
				OFFSET -0.011330 0.052235 0.028447
				CHANNELS 3 Zrotation Yrotation Xrotation
				JOINT neck
				{
					OFFSET -0.012164 0.165167 -0.031615
					CHANNELS 3 Zrotation Yrotation Xrotation
					JOINT head
					{
						OFFSET 0.024783 0.160452 0.020737
						CHANNELS 3 Zrotation Yrotation Xrotation
						End Site
						{
							OFFSET 0.000000 0.000000 0.000000
						}
					}
				}
				JOINT left_collar
				{
					OFFSET 0.046364 0.084944 -0.007220
					CHANNELS 3 Zrotation Yrotation Xrotation
					JOINT left_shoulder
					{
						OFFSET 0.119239 0.057728 -0.015461
						CHANNELS 3 Zrotation Yrotation Xrotation
						JOINT left_elbow
						{
							OFFSET 0.254123 -0.072151 -0.042459
							CHANNELS 3 Zrotation Yrotation Xrotation
							JOINT left_wrist
							{
								OFFSET 0.251987 0.023221 -0.002472
								CHANNELS 3 Zrotation Yrotation Xrotation
								JOINT left_index_1
								{
									OFFSET 0.101902 -0.008688 0.019351
									CHANNELS 3 Zrotation Yrotation Xrotation
									JOINT left_index_2
									{
										OFFSET 0.030149 -0.011154 0.001151
										CHANNELS 3 Zrotation Yrotation Xrotation
										JOINT left_index_3
										{
											OFFSET 0.006504 -0.021577 -0.002433
											CHANNELS 3 Zrotation Yrotation Xrotation
											End Site
											{
												OFFSET 0.000000 0.000000 0.000000
											}
										}
									}
								}
								JOINT left_middle_1
								{
									OFFSET 0.109398 -0.006328 -0.003981
									CHANNELS 3 Zrotation Yrotation Xrotation
									JOINT left_middle_2
									{
										OFFSET 0.026472 -0.015218 -0.004641
										CHANNELS 3 Zrotation Yrotation Xrotation
										JOINT left_middle_3
										{
											OFFSET 0.005022 -0.023347 -0.001911
											CHANNELS 3 Zrotation Yrotation Xrotation
											End Site
											{
												OFFSET 0.000000 0.000000 0.000000
											}
										}
									}
								}
								JOINT left_pinky_1
								{
									OFFSET 0.084047 -0.014539 -0.043750
									CHANNELS 3 Zrotation Yrotation Xrotation
									JOINT left_pinky_2
									{
										OFFSET 0.012124 -0.014448 -0.005375
										CHANNELS 3 Zrotation Yrotation Xrotation
										JOINT left_pinky_3
										{
											OFFSET 0.003798 -0.018853 0.000167
											CHANNELS 3 Zrotation Yrotation Xrotation
											End Site
											{
												OFFSET 0.000000 0.000000 0.000000
											}
										}
									}
								}
								JOINT left_ring_1
								{
									OFFSET 0.097444 -0.009268 -0.027345
									CHANNELS 3 Zrotation Yrotation Xrotation
									JOINT left_ring_2
									{
										OFFSET 0.023561 -0.016057 -0.001895
										CHANNELS 3 Zrotation Yrotation Xrotation
										JOINT left_ring_3
										{
											OFFSET 0.004257 -0.023548 0.000814
											CHANNELS 3 Zrotation Yrotation Xrotation
											End Site
											{
												OFFSET 0.000000 0.000000 0.000000
											}
										}
									}
								}
								JOINT left_thumb_1
								{
									OFFSET 0.040636 -0.017977 0.025611
									CHANNELS 3 Zrotation Yrotation Xrotation
									JOINT left_thumb_2
									{
										OFFSET 0.021637 -0.017639 0.011623
										CHANNELS 3 Zrotation Yrotation Xrotation
										JOINT left_thumb_3
										{
											OFFSET 0.024002 -0.008356 0.006548
											CHANNELS 3 Zrotation Yrotation Xrotation
											End Site
											{
												OFFSET 0.000000 0.000000 0.000000
											}
										}
									}
								}
							}
						}
					}
				}
				JOINT right_collar
				{
					OFFSET -0.047695 0.084339 -0.013400
					CHANNELS 3 Zrotation Yrotation Xrotation
					JOINT right_shoulder
					{
						OFFSET -0.102578 0.053524 -0.012669
						CHANNELS 3 Zrotation Yrotation Xrotation
						JOINT right_elbow
						{
							OFFSET -0.271150 -0.036492 -0.026467
							CHANNELS 3 Zrotation Yrotation Xrotation
							JOINT right_wrist
							{
								OFFSET -0.249267 -0.004533 -0.015325
								CHANNELS 3 Zrotation Yrotation Xrotation
								JOINT right_index_1
								{
									OFFSET -0.099881 -0.011783 0.019600
									CHANNELS 3 Zrotation Yrotation Xrotation
									JOINT right_index_2
									{
										OFFSET -0.030148 -0.011154 0.001151
										CHANNELS 3 Zrotation Yrotation Xrotation
										JOINT right_index_3
										{
											OFFSET -0.006505 -0.021577 -0.002432
											CHANNELS 3 Zrotation Yrotation Xrotation
											End Site
											{
												OFFSET 0.000000 0.000000 0.000000
											}
										}
									}
								}
								JOINT right_middle_1
								{
									OFFSET -0.107376 -0.009422 -0.003734
									CHANNELS 3 Zrotation Yrotation Xrotation
									JOINT right_middle_2
									{
										OFFSET -0.026472 -0.015218 -0.004641
										CHANNELS 3 Zrotation Yrotation Xrotation
										JOINT right_middle_3
										{
											OFFSET -0.005022 -0.023347 -0.001911
											CHANNELS 3 Zrotation Yrotation Xrotation
											End Site
											{
												OFFSET 0.000000 0.000000 0.000000
											}
										}
									}
								}
								JOINT right_pinky_1
								{
									OFFSET -0.082027 -0.017634 -0.043503
									CHANNELS 3 Zrotation Yrotation Xrotation
									JOINT right_pinky_2
									{
										OFFSET -0.012123 -0.014448 -0.005374
										CHANNELS 3 Zrotation Yrotation Xrotation
										JOINT right_pinky_3
										{
											OFFSET -0.003798 -0.018852 0.000167
											CHANNELS 3 Zrotation Yrotation Xrotation
											End Site
											{
												OFFSET 0.000000 0.000000 0.000000
											}
										}
									}
								}
								JOINT right_ring_1
								{
									OFFSET -0.095423 -0.012362 -0.027099
									CHANNELS 3 Zrotation Yrotation Xrotation
									JOINT right_ring_2
									{
										OFFSET -0.023561 -0.016057 -0.001895
										CHANNELS 3 Zrotation Yrotation Xrotation
										JOINT right_ring_3
										{
											OFFSET -0.004257 -0.023548 0.000816
											CHANNELS 3 Zrotation Yrotation Xrotation
											End Site
											{
												OFFSET 0.000000 0.000000 0.000000
											}
										}
									}
								}
								JOINT right_thumb_1
								{
									OFFSET -0.038613 -0.021074 0.025861
									CHANNELS 3 Zrotation Yrotation Xrotation
									JOINT right_thumb_2
									{
										OFFSET -0.021636 -0.017639 0.011623
										CHANNELS 3 Zrotation Yrotation Xrotation
										JOINT right_thumb_3
										{
											OFFSET -0.024004 -0.008353 0.006547
											CHANNELS 3 Zrotation Yrotation Xrotation
											End Site
											{
												OFFSET 0.000000 0.000000 0.000000
											}
										}
									}
								}
							}
						}
					}
				}
			}
		}
	}
}
MOTION
Frames: 6
Frame Time: 0.050000
0.000027 1.058434 0.000587 0.691517 0.460901 -12.853936 -3.334188 2.884214 16.282414 4.151311 -1.358828 6.993788 -8.777264 3.880537 25.502633 0.000000 0.000000 0.000000 2.401050 -1.361003 9.003321 -4.139299 0.442977 3.068205 6.107581 -4.568498 26.198332 0.000000 0.000000 0.000000 -0.679966 -1.981863 30.051451 -0.689844 -4.858985 -25.548538 2.333514 5.423946 15.687997 3.960775 -2.950903 10.897050 0.000000 0.000000 0.000000 -8.291743 -8.037325 3.296224 -42.535754 -11.291722 -7.358170 -34.777971 -12.672758 4.943103 -2.693767 -5.852815 7.596131 -9.525044 1.981003 0.821008 12.530202 -2.935096 -5.185111 0.000000 0.000000 0.000000 -12.264989 -2.267946 -3.290584 -1.218693 0.066014 -0.450148 0.000000 0.000000 0.000000 17.010196 -14.340428 -11.748777 -38.963064 0.210376 -1.144237 0.000000 0.000000 0.000000 -6.479906 -3.995066 -2.924985 -19.701293 -0.170624 -1.291150 0.000000 0.000000 0.000000 9.059840 10.656899 6.694564 -12.998817 0.642292 3.775519 0.000000 0.000000 0.000000 13.870121 8.364956 4.978363 35.473287 10.396341 -2.466676 20.123613 15.567510 1.376198 10.086791 5.327513 0.388013 10.352223 0.165453 0.324082 -12.906139 2.349267 -5.259266 0.000000 0.000000 0.000000 16.878502 5.721985 -5.177650 3.328696 0.179906 -1.645228 0.000000 0.000000 0.000000 -12.823226 11.947831 -13.064151 29.272168 -0.508297 1.166547 0.000000 0.000000 0.000000 10.671104 4.313135 -3.331698 12.450847 1.403451 -2.847514 0.000000 0.000000 0.000000 -4.630668 -9.737685 6.444855 16.893045 -3.896662 5.213675 0.000000 0.000000 0.000000 
-0.002918 1.057144 -0.006012 0.120565 3.679356 -12.155299 -4.325469 3.163603 17.539386 4.396412 -1.133616 5.367507 -8.706422 4.996729 26.097500 0.000000 0.000000 0.000000 3.228911 -1.413746 8.606006 -4.425572 0.423671 2.284739 5.190530 -5.268276 26.678802 0.000000 0.000000 0.000000 -0.309039 -1.996718 28.672514 -0.714554 -4.368297 -25.002453 2.235423 5.489993 14.766207 4.321045 -2.998783 10.453306 0.000000 0.000000 0.000000 -7.973083 -8.932395 3.625187 -42.075049 -10.694246 -7.411709 -33.616808 -12.037599 4.479666 -2.276356 -4.986961 8.212606 -9.594204 1.482070 0.646001 11.475166 -2.433674 -3.027478 0.000000 0.000000 0.000000 -12.581943 -3.271484 -3.826617 -0.648780 0.062526 -0.168469 0.000000 0.000000 0.000000 17.232821 -14.581778 -11.583526 -41.108725 1.259682 0.124705 0.000000 0.000000 0.000000 -6.952066 -3.717298 -2.796181 -19.207087 -0.148124 -1.684678 0.000000 0.000000 0.000000 8.902761 11.136790 7.483036 -12.464081 -1.079412 3.311164 0.000000 0.000000 0.000000 13.764327 7.179656 4.445669 36.000583 10.735275 -2.239797 20.403913 15.633134 1.451616 9.513440 5.196705 0.625099 11.231707 -0.413317 0.528201 -13.381745 2.335530 -5.194094 0.000000 0.000000 0.000000 17.499068 4.611013 -4.730782 3.013446 0.290791 -1.976370 0.000000 0.000000 0.000000 -12.644032 11.927406 -13.108928 30.160835 -0.930124 2.004410 0.000000 0.000000 0.000000 10.756814 4.432810 -3.380762 12.764589 1.377612 -2.642800 0.000000 0.000000 0.000000 -4.484452 -9.352861 6.069621 16.993137 -4.383753 5.335763 0.000000 0.000000 0.000000 
-0.006804 1.056499 -0.013931 -0.464421 5.870469 -11.304907 -4.998010 3.343225 18.405943 5.850817 -0.750203 2.054823 -8.253981 5.972992 26.049265 0.000000 0.000000 0.000000 4.224329 -1.412020 7.890759 -4.868562 0.394962 1.340112 4.852759 -5.329186 26.911006 0.000000 0.000000 0.000000 -0.436949 -1.937258 27.828151 -0.656297 -4.128583 -25.037926 2.283953 6.595881 13.488300 4.839795 -3.340297 11.060250 0.000000 0.000000 0.000000 -7.453366 -9.612705 3.818905 -41.336770 -9.807108 -7.472332 -32.734419 -10.996583 3.898245 -1.970656 -4.909839 7.958334 -8.812107 1.148958 0.533134 12.662110 -2.824116 -4.050903 0.000000 0.000000 0.000000 -11.956730 -2.622061 -3.447645 -1.208740 0.131136 -0.199952 0.000000 0.000000 0.000000 16.522466 -13.999119 -10.586644 -38.407216 -0.285368 -2.785591 0.000000 0.000000 0.000000 -7.072730 -1.995129 -1.855067 -18.761556 -0.750613 -3.945111 0.000000 0.000000 0.000000 9.429867 11.010182 7.207383 -12.789185 -0.469561 3.535652 0.000000 0.000000 0.000000 14.476498 6.840490 4.608945 36.104052 10.627999 -2.087817 20.511125 16.134254 1.591152 9.652549 5.455288 0.837389 10.764315 -0.510971 0.546752 -14.252816 2.758708 -7.423891 0.000000 0.000000 0.000000 16.780727 5.466992 -4.998594 2.704987 0.367396 -2.169091 0.000000 0.000000 0.000000 -13.196322 11.937169 -13.096118 29.043964 -1.072465 2.362233 0.000000 0.000000 0.000000 10.716597 5.158050 -3.792267 12.037976 0.625468 -0.375892 0.000000 0.000000 0.000000 -4.734612 -9.597547 6.141233 17.199158 -3.990875 5.300302 0.000000 0.000000 0.000000 
-0.012105 1.055210 -0.021851 -1.377171 7.575229 -10.218539 -4.886806 3.300445 18.734101 8.077996 -0.278079 -1.642610 -8.452391 6.072443 26.030008 0.000000 0.000000 0.000000 5.708485 -1.345222 6.667621 -5.279973 0.367924 0.555176 4.489365 -5.429705 26.957657 0.000000 0.000000 0.000000 -0.842155 -1.787236 26.581786 -0.232586 -4.333595 -26.643657 2.725272 7.691139 15.673444 5.178243 -3.125275 9.493248 0.000000 0.000000 0.000000 -7.220606 -9.095042 3.389438 -40.078388 -10.333923 -7.578483 -31.515318 -9.969763 3.355701 -1.779795 -4.815825 7.326911 -9.253668 1.923174 0.778056 12.370966 -3.159625 -5.735414 0.000000 0.000000 0.000000 -12.736271 -1.932559 -3.271148 -0.695900 -0.273700 -1.775346 0.000000 0.000000 0.000000 15.111165 -13.839105 -10.774024 -35.131950 -1.801437 -5.676591 0.000000 0.000000 0.000000 -6.742503 -4.259439 -3.084604 -19.370097 -0.157103 -1.914590 0.000000 0.000000 0.000000 9.793511 10.045469 5.961545 -15.039027 1.799083 4.550192 0.000000 0.000000 0.000000 15.486122 6.931325 5.189362 35.665762 12.539605 -1.811450 20.449191 16.807643 1.744823 9.200916 5.760143 -0.117268 10.974237 -0.037743 0.452175 -12.760452 2.299844 -5.889774 0.000000 0.000000 0.000000 17.519492 5.460223 -4.952402 2.058475 0.319558 -1.731603 0.000000 0.000000 0.000000 -12.498985 12.112411 -14.005664 29.585844 -1.459223 3.163492 0.000000 0.000000 0.000000 10.953113 4.209923 -3.187231 11.711602 1.616142 -3.152410 0.000000 0.000000 0.000000 -4.727101 -9.651433 5.943396 17.179146 -4.151741 5.333369 0.000000 0.000000 0.000000 
-0.016933 1.057144 -0.028450 -2.011123 8.611014 -10.359102 -4.232131 3.139978 18.832412 9.046794 -0.195536 -2.371357 -9.094653 5.286863 25.675456 0.000000 0.000000 0.000000 6.824904 -1.509223 6.971387 -5.693254 0.298027 -0.602564 4.428936 -5.553268 27.604908 0.000000 0.000000 0.000000 -1.299393 -1.813500 27.467208 -0.822586 -4.230231 -27.466911 3.620399 8.835167 15.310930 5.193678 -3.068043 9.156378 0.000000 0.000000 0.000000 -6.846664 -9.555562 3.533803 -39.576237 -8.871145 -7.689381 -29.960786 -9.928860 3.181533 -2.275828 -4.619158 6.494362 -7.819416 1.478059 0.649406 12.518120 -3.389629 -6.809272 0.000000 0.000000 0.000000 -11.392811 -2.525898 -3.300842 -0.735694 -0.565106 -3.178350 0.000000 0.000000 0.000000 16.106714 -14.298823 -11.402086 -35.335928 -0.510451 -3.070705 0.000000 0.000000 0.000000 -5.847533 -4.722399 -3.301619 -17.926574 -0.830145 -4.106962 0.000000 0.000000 0.000000 10.386528 9.486696 5.061690 -13.684021 2.890652 4.430515 0.000000 0.000000 0.000000 15.484360 7.337004 5.782864 36.598722 13.649956 -1.443445 20.614366 17.177983 1.858698 8.661799 5.748691 0.007388 11.761834 -0.284297 0.561146 -14.103939 2.556955 -7.193930 0.000000 0.000000 0.000000 17.899578 5.311823 -4.879713 2.704992 0.566281 -2.776057 0.000000 0.000000 0.000000 -11.616608 12.168827 -14.319939 30.388659 -1.991787 4.102209 0.000000 0.000000 0.000000 11.193803 4.962885 -3.601457 13.197392 1.043732 -1.054601 0.000000 0.000000 0.000000 -3.909452 -9.325476 5.940183 16.542333 -4.038484 5.175612 0.000000 0.000000 0.000000 
-0.022116 1.059723 -0.036369 -2.135391 9.552040 -10.307625 -3.701149 2.872085 17.906853 9.013972 -0.256674 -1.969007 -9.781303 4.762290 25.858372 0.000000 0.000000 0.000000 7.191910 -1.475304 6.635992 -5.738046 0.265559 -1.057559 4.258449 -5.832892 28.258774 0.000000 0.000000 0.000000 -2.163365 -1.668070 27.457421 -0.861317 -3.786101 -25.670328 3.146165 9.347520 13.535484 5.070601 -2.876879 8.580021 0.000000 0.000000 0.000000 -6.106077 -8.010402 2.708758 -38.935793 -9.190687 -7.554141 -29.057432 -8.368664 2.537579 -2.101492 -5.073606 6.052466 -9.128802 1.631253 0.686406 12.722148 -2.819926 -4.056270 0.000000 0.000000 0.000000 -11.951958 -2.182196 -3.243392 -1.429008 0.137410 -0.318717 0.000000 0.000000 0.000000 14.080850 -13.938959 -11.321827 -32.128985 -1.514395 -5.175749 0.000000 0.000000 0.000000 -6.997644 -4.209877 -3.078463 -18.805263 0.084706 -1.088617 0.000000 0.000000 0.000000 10.355229 11.023967 6.862022 -13.677454 -1.361722 3.599211 0.000000 0.000000 0.000000 14.898298 8.731992 6.832609 37.786337 15.085171 -0.866741 21.059208 18.217881 2.117501 8.277230 6.246243 -1.427827 10.125534 -0.603833 0.597203 -12.903941 2.411564 -7.174981 0.000000 0.000000 0.000000 17.297356 4.834676 -4.545846 2.893253 0.572101 -2.703267 0.000000 0.000000 0.000000 -12.129844 11.567637 -13.622268 30.421165 -0.595591 1.635292 0.000000 0.000000 0.000000 10.424784 5.262889 -3.742787 13.602646 1.154229 -0.984131 0.000000 0.000000 0.000000 -4.507219 -9.032525 5.186406 17.588965 -5.339877 5.697286 0.000000 0.000000 0.000000 
